<svg xmlns="http://www.w3.org/2000/svg" viewBox="0 0 465.34 116.85"><defs><style>.cls-1{fill:#fff;}</style></defs><g id="Layer_2" data-name="Layer 2"><g id="Layer_1-2" data-name="Layer 1"><path class="cls-1" d="M43.72,38.41H22.22L29,50.16l6.7,11.75h.08l21,36.39,10.7,18.55,5.59-9.55L73,105.45l-2-1.09a1.76,1.76,0,0,1-.88-1.15A1.87,1.87,0,0,1,71.34,101a1.72,1.72,0,0,1,1.27.11L71.8,90.6l-2-1.11a1.78,1.78,0,0,1-.88-1.15,1.85,1.85,0,0,1,1.26-2.19,1.75,1.75,0,0,1,1.32.12l-.85-11L67.43,73.4C49.09,62.82,52.34,56.75,52.79,56.06l.05-.06s2.86-7.34,22.37,3.93l3.26,1.88,10.17-4.87a1.75,1.75,0,0,1-.77-1.08,1.85,1.85,0,0,1,1.27-2.19,1.75,1.75,0,0,1,1.43.19l2,1.21,9.53-4.56a1.73,1.73,0,0,1-.73-1,1.86,1.86,0,0,1,1.27-2.18,1.74,1.74,0,0,1,1.43.18L106,48.64l1.21-.58,5.5-9.65Z"/><polygon class="cls-1" points="65.95 0 0 0 13.39 23.5 65.95 23.5 121.55 23.5 134.94 0 65.95 0"/><path class="cls-1" d="M145.63,47.35V72.16h16V81.1h-16v35.75H135.05V38.41h28.22v8.94Z"/><path class="cls-1" d="M180.21,116.85V38.41h10.58v78.44Z"/><path class="cls-1" d="M229,116.85h-8.35L205.49,38.41H216c2.47,15.17,4.94,30.34,7.17,45.63.71,4.47,1.41,8.94,1.88,13.41a118,118,0,0,1,1.77-12.71c.94-5.76,1.65-11.64,2.7-17.4l5.06-28.93h9.88Z"/><path class="cls-1" d="M259,116.85V38.41h28.11v8.94H269.59V72.28h15.52v8.94H269.59v26.69h17.52v8.94Z"/><path class="cls-1" d="M334.11,104.52a26.35,26.35,0,0,1-4.87,4.66l4.67,7.07h-9.33l-1.74-2.6a12.16,12.16,0,0,1-8.26,3.2,11.23,11.23,0,0,1-8.4-3.6,13.7,13.7,0,0,1-3.74-9.47c0-5.39,3.14-9.73,6.4-12.46a22.74,22.74,0,0,1-2.06-4.27,17.91,17.91,0,0,1-1.07-6,8.91,8.91,0,0,1,2.8-7.06,10.63,10.63,0,0,1,7.6-2.87,11,11,0,0,1,7.67,2.8,8.19,8.19,0,0,1,2.53,6.27,13.62,13.62,0,0,1-2.2,7.59A17.94,17.94,0,0,1,319,92.92l5.86,9.6a31.21,31.21,0,0,0,4.67-4.67Zm-21-6.54a6.76,6.76,0,0,0-2.13,4.87,6.27,6.27,0,0,0,1.8,4.33,4.26,4.26,0,0,0,5.93.14Zm4.4-14.13a6.59,6.59,0,0,0,.8-3.06,3,3,0,0,0-.73-2.27,2.2,2.2,0,0,0-1.54-.6,2.58,2.58,0,0,0-1.93.73,3.26,3.26,0,0,0-.73,2.34,9.73,9.73,0,0,0,1.86,5.33A8.83,8.83,0,0,0,317.51,83.85Z"/><path class="cls-1" d="M357,47.35V72.16h16V81.1H357v35.75H346.44V38.41h28.23v8.94Z"/><path class="cls-1" d="M391.6,116.85V38.41h10.59v69.5h17.28v8.94Z"/><path class="cls-1" d="M451.7,83.1v33.75H441.12V83.1L424.77,38.41h11.17l6.35,21.05a124.25,124.25,0,0,1,3.88,15.29c.59-3.53,2.12-11.53,3.06-15.52l5.17-20.82h10.94Z"/></g></g></svg>